<svg width="74" height="74" viewBox="0 0 74 74" fill="none" xmlns="http://www.w3.org/2000/svg">
<rect x="0.5" y="0.5" width="73" height="73" rx="7.5" fill="#FCFCFD"/>
<rect x="0.5" y="0.5" width="73" height="73" rx="7.5" stroke="#F1F1F3"/>
<path fill-rule="evenodd" clip-rule="evenodd" d="M28.8734 45.1266C29.3714 45.6245 30.1786 45.6245 30.6766 45.1266L42.95 32.8531V42.525C42.95 43.2292 43.5208 43.8 44.225 43.8C44.9292 43.8 45.5 43.2292 45.5 42.525V29.775C45.5 29.0708 44.9292 28.5 44.225 28.5H31.475C30.7708 28.5 30.2 29.0708 30.2 29.775C30.2 30.4792 30.7708 31.05 31.475 31.05H41.1469L28.8734 43.3234C28.3755 43.8214 28.3755 44.6286 28.8734 45.1266Z" fill="#FF9500"/>
</svg>
