<svg width="52" height="52" viewBox="0 0 52 52" fill="none" xmlns="http://www.w3.org/2000/svg">
<rect x="0.5" y="0.5" width="51" height="51" rx="7.5" fill="#F7F7F8"/>
<rect x="0.5" y="0.5" width="51" height="51" rx="7.5" stroke="#F1F1F3"/>
<g clip-path="url(#clip0_1_450)">
<path d="M38 26C38 19.3726 32.6274 14 26 14C19.3726 14 14 19.3726 14 26C14 31.9895 18.3882 36.954 24.125 37.8542V29.4687H21.0781V26H24.125V23.3562C24.125 20.3488 25.9166 18.6875 28.6576 18.6875C29.9701 18.6875 31.3438 18.9219 31.3438 18.9219V21.875H29.8306C28.34 21.875 27.875 22.8001 27.875 23.75V26H31.2031L30.6711 29.4687H27.875V37.8542C33.6118 36.954 38 31.9895 38 26Z" fill="#333333"/>
</g>
<defs>
<clipPath id="clip0_1_450">
<rect width="24" height="24" fill="white" transform="translate(14 14)"/>
</clipPath>
</defs>
</svg>
