<svg width="52" height="52" viewBox="0 0 52 52" fill="none" xmlns="http://www.w3.org/2000/svg">
<rect x="0.5" y="0.5" width="51" height="51" rx="7.5" fill="#F7F7F8"/>
<rect x="0.5" y="0.5" width="51" height="51" rx="7.5" stroke="#F1F1F3"/>
<g clip-path="url(#clip0_1_453)">
<path d="M21.5502 35.75C30.6045 35.75 35.5583 28.2467 35.5583 21.7419C35.5583 21.5309 35.5536 21.3153 35.5442 21.1044C36.5079 20.4075 37.3395 19.5443 38 18.5553C37.1025 18.9546 36.1496 19.2154 35.1739 19.3287C36.2013 18.7129 36.9705 17.7455 37.3391 16.6058C36.3726 17.1786 35.3156 17.5826 34.2134 17.8006C33.4708 17.0116 32.489 16.4891 31.4197 16.3141C30.3504 16.139 29.2532 16.3211 28.2977 16.8321C27.3423 17.3431 26.5818 18.1547 26.1338 19.1413C25.6859 20.1279 25.5754 21.2346 25.8195 22.2903C23.8625 22.1921 21.9479 21.6837 20.2 20.7981C18.452 19.9125 16.9097 18.6694 15.673 17.1495C15.0444 18.2332 14.8521 19.5156 15.135 20.7361C15.418 21.9565 16.1551 23.0234 17.1964 23.72C16.4146 23.6952 15.65 23.4847 14.9656 23.1059V23.1669C14.9649 24.3041 15.3581 25.4066 16.0783 26.2868C16.7985 27.167 17.8013 27.7706 18.9162 27.995C18.1921 28.1931 17.432 28.222 16.6948 28.0794C17.0095 29.0574 17.6216 29.9129 18.4458 30.5263C19.27 31.1398 20.2651 31.4806 21.2923 31.5012C19.5484 32.8711 17.3942 33.6141 15.1766 33.6106C14.7833 33.61 14.3904 33.5859 14 33.5384C16.2529 34.9837 18.8735 35.7514 21.5502 35.75Z" fill="#333333"/>
</g>
<defs>
<clipPath id="clip0_1_453">
<rect width="24" height="24" fill="white" transform="translate(14 14)"/>
</clipPath>
</defs>
</svg>
